<svg width="163" height="157" viewBox="0 0 163 157" fill="none" xmlns="http://www.w3.org/2000/svg">
<path d="M156.828 93.5215C164.37 84.8974 164.37 72.0219 156.828 63.3978C152.704 58.6823 150.696 52.4653 151.27 46.2273C152.318 34.8378 144.767 24.3973 133.615 21.8551C127.518 20.4652 122.247 16.6144 119.06 11.2336C113.235 1.39749 100.992 -2.61161 90.4941 1.91269C84.7533 4.38679 78.2467 4.38679 72.5059 1.91269C62.0078 -2.61161 49.7694 1.38957 43.9444 11.2257C40.7544 16.6124 35.4777 20.4566 29.3702 21.8319C18.2295 24.3407 10.6848 34.7916 11.7316 46.1632C12.304 52.3809 10.2871 58.6214 6.18499 63.3289C-1.34148 71.9661 -1.37701 84.8893 6.16482 93.5131C10.2938 98.2344 12.3027 104.481 11.7293 110.727C10.6837 122.117 18.244 132.605 29.3953 135.147C35.4822 136.535 40.7503 140.381 43.9315 145.752C49.7573 155.59 62.012 159.587 72.5004 155.035C78.2431 152.544 84.7622 152.536 90.5111 155.014C100.997 159.533 113.238 155.517 119.056 145.692C122.243 140.311 127.518 136.454 133.615 135.064C144.767 132.522 152.318 122.081 151.27 110.692C150.696 104.454 152.704 98.2369 156.828 93.5215ZM68.794 117.481C68.0844 118.158 66.9885 118.22 66.2064 117.628L33.9817 93.2369C33.0039 92.4968 32.9163 91.0592 33.7969 90.2059L46.1466 78.2389C47.3743 77.0493 49.3463 77.1245 50.4799 78.404L63.5184 93.1221C64.7516 94.5141 66.9412 94.4604 68.1045 93.0094L107.453 43.9343C108.2 43.0025 109.592 42.9289 110.433 43.7767L126.317 59.7859C127.106 60.5809 127.088 61.8686 126.278 62.6416L68.794 117.481Z" fill="#4AC156"/>
</svg>
