<svg width="177" height="169" viewBox="0 0 177 169" fill="none" xmlns="http://www.w3.org/2000/svg">
<path d="M163.828 99.5215C171.37 90.8974 171.37 78.0219 163.828 69.3978C159.704 64.6823 157.696 58.4653 158.27 52.2273C159.318 40.8378 151.767 30.3973 140.615 27.8551C134.518 26.4652 129.247 22.6144 126.06 17.2336C120.235 7.39749 107.992 3.38839 97.4941 7.91269C91.7533 10.3868 85.2467 10.3868 79.5059 7.91269C69.0078 3.38839 56.7694 7.38957 50.9444 17.2257C47.7544 22.6124 42.4777 26.4566 36.3702 27.8319C25.2295 30.3407 17.6848 40.7916 18.7316 52.1632C19.304 58.3809 17.2871 64.6214 13.185 69.3289C5.65852 77.9661 5.62299 90.8893 13.1648 99.5131C17.2938 104.234 19.3027 110.481 18.7293 116.727C17.6837 128.117 25.244 138.605 36.3953 141.147C42.4822 142.535 47.7503 146.381 50.9315 151.752C56.7573 161.59 69.012 165.587 79.5004 161.035C85.2431 158.544 91.7622 158.536 97.5111 161.014C107.997 165.533 120.238 161.517 126.056 151.692C129.243 146.311 134.518 142.454 140.615 141.064C151.767 138.522 159.318 128.081 158.27 116.692C157.696 110.454 159.704 104.237 163.828 99.5215Z" fill="#F40606"/>
<g clip-path="url(#clip0_1525_2636)">
<path d="M120.388 105.826L100.062 85.5L120.388 65.1738C120.778 64.7796 120.996 64.2477 120.996 63.6936C120.996 63.1394 120.778 62.6075 120.388 62.2133L110.786 52.6113C110.592 52.4165 110.361 52.2619 110.107 52.1564C109.853 52.0509 109.581 51.9966 109.306 51.9966C109.031 51.9966 108.758 52.0509 108.504 52.1564C108.25 52.2619 108.02 52.4165 107.826 52.6113L87.4995 72.9375L67.1734 52.6113C66.7807 52.2188 66.2483 51.9983 65.6931 51.9983C65.1379 51.9983 64.6054 52.2188 64.2128 52.6113L54.6109 62.2133C54.416 62.4074 54.2614 62.6381 54.1559 62.8921C54.0504 63.1462 53.9961 63.4185 53.9961 63.6936C53.9961 63.9686 54.0504 64.241 54.1559 64.495C54.2614 64.749 54.416 64.9797 54.6109 65.1738L74.937 85.5L54.6109 105.826C54.2183 106.219 53.9978 106.751 53.9978 107.306C53.9978 107.862 54.2183 108.394 54.6109 108.787L64.2128 118.389C64.4069 118.583 64.6376 118.738 64.8916 118.844C65.1457 118.949 65.418 119.003 65.6931 119.003C65.9681 119.003 66.2405 118.949 66.4945 118.844C66.7485 118.738 66.9792 118.583 67.1734 118.389L87.4995 98.0625L107.826 118.389C108.218 118.781 108.751 119.002 109.306 119.002C109.861 119.002 110.394 118.781 110.786 118.389L120.388 108.787C120.583 108.593 120.738 108.362 120.843 108.108C120.949 107.854 121.003 107.581 121.003 107.306C121.003 107.031 120.949 106.759 120.843 106.505C120.738 106.251 120.583 106.02 120.388 105.826Z" fill="white"/>
</g>
<defs>
<clipPath id="clip0_1525_2636">
<rect width="67" height="67" fill="white" transform="translate(54 52)"/>
</clipPath>
</defs>
</svg>
